<svg width="6" height="12" viewBox="0 0 6 12" fill="none" xmlns="http://www.w3.org/2000/svg">
<path d="M0.156988 11.0689L4.76799 6.38395C4.86912 6.28173 4.92584 6.14374 4.92584 5.99995C4.92584 5.85616 4.86912 5.71817 4.76799 5.61595L0.157988 0.930948C0.0569124 0.828092 0.000276071 0.689655 0.000276065 0.545448C0.000276059 0.401241 0.0569124 0.262803 0.157988 0.159948C0.207365 0.109299 0.266381 0.0690472 0.331558 0.0415633C0.396735 0.0140793 0.466754 -7.98668e-05 0.537488 -7.98699e-05C0.608223 -7.9873e-05 0.678241 0.0140793 0.743418 0.0415633C0.808595 0.0690472 0.867611 0.109299 0.916988 0.159948L5.52699 4.84395C5.82991 5.15247 5.99963 5.56757 5.99963 5.99995C5.99963 6.43232 5.82991 6.84743 5.52699 7.15595L0.916988 11.8399C0.867596 11.8907 0.808518 11.9311 0.743249 11.9587C0.677979 11.9863 0.607843 12.0005 0.536988 12.0005C0.466133 12.0005 0.395998 11.9863 0.330729 11.9587C0.265459 11.9311 0.206381 11.8907 0.156988 11.8399C0.0559125 11.7371 -0.000723856 11.5987 -0.000723863 11.4544C-0.000723869 11.3102 0.0559125 11.1718 0.156988 11.0689Z" fill="#181818"/>
</svg>
