<svg width="12" height="6" viewBox="0 0 12 6" fill="none" xmlns="http://www.w3.org/2000/svg">
<path d="M0.931053 0.15711L5.61605 4.76811C5.71827 4.86924 5.85626 4.92596 6.00005 4.92596C6.14384 4.92596 6.28183 4.86924 6.38405 4.76811L11.0691 0.158111C11.1719 0.057035 11.3103 0.000398636 11.4546 0.000398636C11.5988 0.000398636 11.7372 0.057035 11.8401 0.158111C11.8907 0.207488 11.931 0.266503 11.9584 0.33168C11.9859 0.396857 12.0001 0.466877 12.0001 0.537611C12.0001 0.608346 11.9859 0.678364 11.9584 0.743541C11.931 0.808718 11.8907 0.867733 11.8401 0.91711L7.15605 5.52711C6.84753 5.83004 6.43243 5.99976 6.00005 5.99976C5.56768 5.99976 5.15257 5.83004 4.84405 5.52711L0.160053 0.91711C0.109251 0.867718 0.0688686 0.80864 0.0412939 0.743371C0.0137191 0.678102 -0.000488281 0.607965 -0.000488281 0.53711C-0.000488281 0.466255 0.0137191 0.39612 0.0412939 0.330851C0.0688686 0.265581 0.109251 0.206503 0.160053 0.15711C0.262908 0.0560346 0.401346 -0.000601768 0.545553 -0.000601768C0.689759 -0.000601768 0.828197 0.0560346 0.931053 0.15711Z" fill="white"/>
</svg>
