<?xml version="1.0" encoding="utf-8"?><svg viewBox="0 0 25 22" xmlns="http://www.w3.org/2000/svg" xmlns:xlink="http://www.w3.org/1999/xlink"><style>:root>svg{display:none}:root>svg:target{display:block}</style><svg viewBox="0 0 12 6" id="header-arrow" xmlns="http://www.w3.org/2000/svg"><path d="m.931.157 4.685 4.611a.546.546 0 0 0 .768 0L11.07.158a.55.55 0 0 1 .89.174.53.53 0 0 1-.119.585l-4.684 4.61a1.65 1.65 0 0 1-2.312 0L.16.917a.53.53 0 0 1 0-.76.55.55 0 0 1 .771 0Z"/></svg><svg viewBox="0 0 16 16" id="lk" xmlns="http://www.w3.org/2000/svg"><path d="M8 0a4 4 0 1 1 0 8 4 4 0 0 1 0-8Zm0 16s8 0 8-2c0-2.4-3.9-5-8-5s-8 2.6-8 5c0 2 8 2 8 2Z"/></svg><svg viewBox="0 0 12 6" id="lk-arrow" xmlns="http://www.w3.org/2000/svg"><path d="m.932.157 4.685 4.611a.546.546 0 0 0 .768 0l4.684-4.61a.55.55 0 0 1 .89.174.53.53 0 0 1-.118.585l-4.684 4.61a1.65 1.65 0 0 1-2.312 0L.16.917a.53.53 0 0 1 0-.76.55.55 0 0 1 .77 0Z"/></svg><svg viewBox="0 0 17 14" id="telegram" xmlns="http://www.w3.org/2000/svg"><path fill-rule="evenodd" clip-rule="evenodd" d="M14.697.386a1.201 1.201 0 0 1 1.192.158c.166.129.294.3.37.493.076.194.099.404.064.61l-1.788 10.666a1.563 1.563 0 0 1-2.281 1.106 46.27 46.27 0 0 1-3.068-1.778c-.536-.345-2.179-1.45-1.977-2.236.174-.673 2.934-3.199 4.51-4.7.62-.59.338-.931-.393-.388C9.51 5.664 6.595 7.714 5.631 8.29c-.85.51-1.293.596-1.823.51-.967-.16-1.863-.404-2.595-.703-.989-.403-.94-1.74 0-2.129L14.696.386Z"/></svg><svg viewBox="0 0 21 22" id="tiktok" xmlns="http://www.w3.org/2000/svg"><path d="M16.66 3.937c-.915-.892-1.42-2.037-1.419-3.223h-4.138v14.172c-.032.767-.412 1.493-1.059 2.026-.647.533-1.51.83-2.41.83-1.902 0-3.482-1.325-3.482-2.97 0-1.966 2.223-3.44 4.513-2.835V8.326C4.045 7.8 0 10.863 0 14.77c0 3.806 3.696 6.515 7.62 6.515 4.206 0 7.621-2.915 7.621-6.515V7.583C16.92 8.61 18.934 9.163 21 9.16V5.63s-2.518.103-4.34-1.692Z"/></svg><svg viewBox="0 0 25 12" id="vk" xmlns="http://www.w3.org/2000/svg"><path d="M23.995 11.999h-2.737c-1.035 0-1.347-.677-3.203-2.178-1.621-1.263-2.306-1.42-2.717-1.42-.567 0-.722.126-.722.757v1.99c0 .537-.216.852-1.955.852a12.549 12.549 0 0 1-4.774-1.208c-1.45-.703-2.674-1.674-3.569-2.834C2.193 5.821.715 3.313 0 .633 0 .302.156.001.938.001h2.735c.703 0 .956.253 1.232.838 1.328 3.157 3.594 5.904 4.514 5.904.352 0 .506-.126.506-.836V2.654C9.809 1.17 8.833 1.045 8.833.508A.515.515 0 0 1 9.057.14.778.778 0 0 1 9.535 0h4.3c.587 0 .781.237.781.805v4.39c0 .474.252.631.43.631.352 0 .623-.157 1.27-.678 1.386-1.366 2.518-2.887 3.361-4.517.086-.195.25-.363.465-.477.215-.113.47-.167.726-.153h2.736c.82 0 .995.332.82.805a26.953 26.953 0 0 1-3.672 5.1c-.295.363-.413.552 0 .979.271.331 1.23.978 1.875 1.594.938.756 1.716 1.63 2.305 2.588.235.616-.156.931-.937.931Z"/></svg><svg viewBox="0 0 20 16" id="youtube" xmlns="http://www.w3.org/2000/svg"><path fill-rule="evenodd" clip-rule="evenodd" d="M9.732.393c.813 0 1.647.02 2.455.055l.955.045.914.055.855.058.782.06a3.615 3.615 0 0 1 3.323 3.256l.038.404.071.865c.067.897.116 1.874.116 2.81 0 .934-.05 1.911-.116 2.808l-.071.866-.038.404a3.616 3.616 0 0 1-3.324 3.255l-.78.06-.856.059-.914.054-.955.045c-.818.036-1.637.054-2.455.056a58.438 58.438 0 0 1-2.456-.056l-.954-.045-.914-.054-.856-.06-.782-.06A3.615 3.615 0 0 1 .448 12.08l-.038-.405-.072-.865A38.664 38.664 0 0 1 .222 8c0-.935.05-1.912.116-2.809l.072-.865c.012-.14.024-.273.038-.404A3.615 3.615 0 0 1 3.769.666l.78-.06.857-.058.915-.055.954-.045A58.65 58.65 0 0 1 9.732.393ZM7.83 5.694v4.612c0 .44.475.713.856.495l3.994-2.306a.57.57 0 0 0 0-.99L8.686 5.202a.57.57 0 0 0-.856.494v-.001Z"/></svg></svg>